<?xml version="1.0" encoding="utf-8" standalone="no"?>
<!DOCTYPE svg PUBLIC "-//W3C//DTD SVG 1.1//EN"
  "http://www.w3.org/Graphics/SVG/1.1/DTD/svg11.dtd">
<svg xmlns:xlink="http://www.w3.org/1999/xlink" width="460.8pt" height="345.6pt" viewBox="0 0 460.8 345.6" xmlns="http://www.w3.org/2000/svg" version="1.1">
 <metadata>
  <rdf:RDF xmlns:dc="http://purl.org/dc/elements/1.1/" xmlns:cc="http://creativecommons.org/ns#" xmlns:rdf="http://www.w3.org/1999/02/22-rdf-syntax-ns#">
   <cc:Work>
    <dc:type rdf:resource="http://purl.org/dc/dcmitype/StillImage"/>
    <dc:date>2023-09-28T20:59:56.169703</dc:date>
    <dc:format>image/svg+xml</dc:format>
    <dc:creator>
     <cc:Agent>
      <dc:title>Matplotlib v3.7.1, https://matplotlib.org/</dc:title>
     </cc:Agent>
    </dc:creator>
   </cc:Work>
  </rdf:RDF>
 </metadata>
 <defs>
  <style type="text/css">*{stroke-linejoin: round; stroke-linecap: butt}</style>
 </defs>
 <g id="figure_1">
  <g id="patch_1">
   <path d="M 0 345.6 
L 460.8 345.6 
L 460.8 0 
L 0 0 
z
" style="fill: #ffffff"/>
  </g>
  <g id="axes_1">
   <g id="patch_2">
    <path d="M 57.6 307.584 
L 414.72 307.584 
L 414.72 41.472 
L 57.6 41.472 
z
" style="fill: #ffffff"/>
   </g>
   <g id="PathCollection_1">
    <defs>
     <path id="m9491cc3887" d="M 0 3 
C 0.795609 3 1.55874 2.683901 2.12132 2.12132 
C 2.683901 1.55874 3 0.795609 3 0 
C 3 -0.795609 2.683901 -1.55874 2.12132 -2.12132 
C 1.55874 -2.683901 0.795609 -3 0 -3 
C -0.795609 -3 -1.55874 -2.683901 -2.12132 -2.12132 
C -2.683901 -1.55874 -3 -0.795609 -3 0 
C -3 0.795609 -2.683901 1.55874 -2.12132 2.12132 
C -1.55874 2.683901 -0.795609 3 0 3 
z
" style="stroke: #1f77b4; stroke-width: 2"/>
    </defs>
    <g clip-path="url(#p5fad1ad735)">
     <use xlink:href="#m9491cc3887" x="73.832727" y="295.488" style="fill: #1f77b4; stroke: #1f77b4; stroke-width: 2"/>
     <use xlink:href="#m9491cc3887" x="74.918528" y="295.452101" style="fill: #1f77b4; stroke: #1f77b4; stroke-width: 2"/>
     <use xlink:href="#m9491cc3887" x="78.175932" y="295.488" style="fill: #1f77b4; stroke: #1f77b4; stroke-width: 2"/>
     <use xlink:href="#m9491cc3887" x="83.604938" y="295.415986" style="fill: #1f77b4; stroke: #1f77b4; stroke-width: 2"/>
     <use xlink:href="#m9491cc3887" x="94.462949" y="295.415986" style="fill: #1f77b4; stroke: #1f77b4; stroke-width: 2"/>
     <use xlink:href="#m9491cc3887" x="127.036984" y="295.252983" style="fill: #1f77b4; stroke: #1f77b4; stroke-width: 2"/>
     <use xlink:href="#m9491cc3887" x="159.611019" y="295.095237" style="fill: #1f77b4; stroke: #1f77b4; stroke-width: 2"/>
     <use xlink:href="#m9491cc3887" x="181.327042" y="294.947897" style="fill: #1f77b4; stroke: #1f77b4; stroke-width: 2"/>
     <use xlink:href="#m9491cc3887" x="203.043065" y="294.839877" style="fill: #1f77b4; stroke: #1f77b4; stroke-width: 2"/>
     <use xlink:href="#m9491cc3887" x="235.617099" y="294.69585" style="fill: #1f77b4; stroke: #1f77b4; stroke-width: 2"/>
     <use xlink:href="#m9491cc3887" x="268.191134" y="294.497488" style="fill: #1f77b4; stroke: #1f77b4; stroke-width: 2"/>
     <use xlink:href="#m9491cc3887" x="289.907157" y="294.354145" style="fill: #1f77b4; stroke: #1f77b4; stroke-width: 2"/>
     <use xlink:href="#m9491cc3887" x="344.197215" y="294.056764" style="fill: #1f77b4; stroke: #1f77b4; stroke-width: 2"/>
     <use xlink:href="#m9491cc3887" x="398.487273" y="293.786245" style="fill: #1f77b4; stroke: #1f77b4; stroke-width: 2"/>
     <use xlink:href="#m9491cc3887" x="73.832727" y="295.488" style="fill: #1f77b4; stroke: #1f77b4; stroke-width: 2"/>
     <use xlink:href="#m9491cc3887" x="74.918528" y="295.488" style="fill: #1f77b4; stroke: #1f77b4; stroke-width: 2"/>
     <use xlink:href="#m9491cc3887" x="78.175932" y="295.451993" style="fill: #1f77b4; stroke: #1f77b4; stroke-width: 2"/>
     <use xlink:href="#m9491cc3887" x="83.604938" y="295.452029" style="fill: #1f77b4; stroke: #1f77b4; stroke-width: 2"/>
     <use xlink:href="#m9491cc3887" x="94.462949" y="295.416022" style="fill: #1f77b4; stroke: #1f77b4; stroke-width: 2"/>
     <use xlink:href="#m9491cc3887" x="127.036984" y="295.272175" style="fill: #1f77b4; stroke: #1f77b4; stroke-width: 2"/>
     <use xlink:href="#m9491cc3887" x="159.611019" y="295.091961" style="fill: #1f77b4; stroke: #1f77b4; stroke-width: 2"/>
     <use xlink:href="#m9491cc3887" x="181.327042" y="294.984696" style="fill: #1f77b4; stroke: #1f77b4; stroke-width: 2"/>
     <use xlink:href="#m9491cc3887" x="203.043065" y="294.875092" style="fill: #1f77b4; stroke: #1f77b4; stroke-width: 2"/>
     <use xlink:href="#m9491cc3887" x="235.617099" y="294.696642" style="fill: #1f77b4; stroke: #1f77b4; stroke-width: 2"/>
     <use xlink:href="#m9491cc3887" x="268.191134" y="294.515815" style="fill: #1f77b4; stroke: #1f77b4; stroke-width: 2"/>
     <use xlink:href="#m9491cc3887" x="289.907157" y="294.371788" style="fill: #1f77b4; stroke: #1f77b4; stroke-width: 2"/>
     <use xlink:href="#m9491cc3887" x="344.197215" y="294.083661" style="fill: #1f77b4; stroke: #1f77b4; stroke-width: 2"/>
     <use xlink:href="#m9491cc3887" x="398.487273" y="293.795679" style="fill: #1f77b4; stroke: #1f77b4; stroke-width: 2"/>
     <use xlink:href="#m9491cc3887" x="73.832727" y="295.488" style="fill: #1f77b4; stroke: #1f77b4; stroke-width: 2"/>
     <use xlink:href="#m9491cc3887" x="74.918528" y="295.488" style="fill: #1f77b4; stroke: #1f77b4; stroke-width: 2"/>
     <use xlink:href="#m9491cc3887" x="78.175932" y="295.451993" style="fill: #1f77b4; stroke: #1f77b4; stroke-width: 2"/>
     <use xlink:href="#m9491cc3887" x="83.604938" y="295.451993" style="fill: #1f77b4; stroke: #1f77b4; stroke-width: 2"/>
     <use xlink:href="#m9491cc3887" x="94.462949" y="295.415986" style="fill: #1f77b4; stroke: #1f77b4; stroke-width: 2"/>
     <use xlink:href="#m9491cc3887" x="127.036984" y="295.235952" style="fill: #1f77b4; stroke: #1f77b4; stroke-width: 2"/>
     <use xlink:href="#m9491cc3887" x="159.611019" y="295.099882" style="fill: #1f77b4; stroke: #1f77b4; stroke-width: 2"/>
     <use xlink:href="#m9491cc3887" x="181.327042" y="294.976055" style="fill: #1f77b4; stroke: #1f77b4; stroke-width: 2"/>
     <use xlink:href="#m9491cc3887" x="203.043065" y="294.875848" style="fill: #1f77b4; stroke: #1f77b4; stroke-width: 2"/>
     <use xlink:href="#m9491cc3887" x="235.617099" y="294.731856" style="fill: #1f77b4; stroke: #1f77b4; stroke-width: 2"/>
     <use xlink:href="#m9491cc3887" x="268.191134" y="294.532811" style="fill: #1f77b4; stroke: #1f77b4; stroke-width: 2"/>
     <use xlink:href="#m9491cc3887" x="289.907157" y="294.42605" style="fill: #1f77b4; stroke: #1f77b4; stroke-width: 2"/>
     <use xlink:href="#m9491cc3887" x="344.197215" y="294.083805" style="fill: #1f77b4; stroke: #1f77b4; stroke-width: 2"/>
     <use xlink:href="#m9491cc3887" x="398.487273" y="293.777387" style="fill: #1f77b4; stroke: #1f77b4; stroke-width: 2"/>
    </g>
   </g>
   <g id="PathCollection_2">
    <defs>
     <path id="m4ae470f690" d="M 0 3 
C 0.795609 3 1.55874 2.683901 2.12132 2.12132 
C 2.683901 1.55874 3 0.795609 3 0 
C 3 -0.795609 2.683901 -1.55874 2.12132 -2.12132 
C 1.55874 -2.683901 0.795609 -3 0 -3 
C -0.795609 -3 -1.55874 -2.683901 -2.12132 -2.12132 
C -2.683901 -1.55874 -3 -0.795609 -3 0 
C -3 0.795609 -2.683901 1.55874 -2.12132 2.12132 
C -1.55874 2.683901 -0.795609 3 0 3 
z
" style="stroke: #ff7f0e; stroke-width: 2"/>
    </defs>
    <g clip-path="url(#p5fad1ad735)">
     <use xlink:href="#m4ae470f690" x="73.832727" y="295.488" style="fill: #ff7f0e; stroke: #ff7f0e; stroke-width: 2"/>
     <use xlink:href="#m4ae470f690" x="74.918528" y="295.451993" style="fill: #ff7f0e; stroke: #ff7f0e; stroke-width: 2"/>
     <use xlink:href="#m4ae470f690" x="78.175932" y="295.41595" style="fill: #ff7f0e; stroke: #ff7f0e; stroke-width: 2"/>
     <use xlink:href="#m4ae470f690" x="83.604938" y="295.235988" style="fill: #ff7f0e; stroke: #ff7f0e; stroke-width: 2"/>
     <use xlink:href="#m4ae470f690" x="94.462949" y="294.42299" style="fill: #ff7f0e; stroke: #ff7f0e; stroke-width: 2"/>
     <use xlink:href="#m4ae470f690" x="127.036984" y="288.898821" style="fill: #ff7f0e; stroke: #ff7f0e; stroke-width: 2"/>
     <use xlink:href="#m4ae470f690" x="159.611019" y="278.344929" style="fill: #ff7f0e; stroke: #ff7f0e; stroke-width: 2"/>
     <use xlink:href="#m4ae470f690" x="181.327042" y="268.954778" style="fill: #ff7f0e; stroke: #ff7f0e; stroke-width: 2"/>
     <use xlink:href="#m4ae470f690" x="203.043065" y="257.262386" style="fill: #ff7f0e; stroke: #ff7f0e; stroke-width: 2"/>
     <use xlink:href="#m4ae470f690" x="235.617099" y="235.215723" style="fill: #ff7f0e; stroke: #ff7f0e; stroke-width: 2"/>
     <use xlink:href="#m4ae470f690" x="268.191134" y="209.577271" style="fill: #ff7f0e; stroke: #ff7f0e; stroke-width: 2"/>
     <use xlink:href="#m4ae470f690" x="289.907157" y="189.322129" style="fill: #ff7f0e; stroke: #ff7f0e; stroke-width: 2"/>
     <use xlink:href="#m4ae470f690" x="344.197215" y="127.840311" style="fill: #ff7f0e; stroke: #ff7f0e; stroke-width: 2"/>
     <use xlink:href="#m4ae470f690" x="398.487273" y="53.935918" style="fill: #ff7f0e; stroke: #ff7f0e; stroke-width: 2"/>
     <use xlink:href="#m4ae470f690" x="73.832727" y="295.451993" style="fill: #ff7f0e; stroke: #ff7f0e; stroke-width: 2"/>
     <use xlink:href="#m4ae470f690" x="74.918528" y="295.488" style="fill: #ff7f0e; stroke: #ff7f0e; stroke-width: 2"/>
     <use xlink:href="#m4ae470f690" x="78.175932" y="295.413466" style="fill: #ff7f0e; stroke: #ff7f0e; stroke-width: 2"/>
     <use xlink:href="#m4ae470f690" x="83.604938" y="295.252767" style="fill: #ff7f0e; stroke: #ff7f0e; stroke-width: 2"/>
     <use xlink:href="#m4ae470f690" x="94.462949" y="294.463173" style="fill: #ff7f0e; stroke: #ff7f0e; stroke-width: 2"/>
     <use xlink:href="#m4ae470f690" x="127.036984" y="288.920425" style="fill: #ff7f0e; stroke: #ff7f0e; stroke-width: 2"/>
     <use xlink:href="#m4ae470f690" x="159.611019" y="278.799191" style="fill: #ff7f0e; stroke: #ff7f0e; stroke-width: 2"/>
     <use xlink:href="#m4ae470f690" x="181.327042" y="269.094556" style="fill: #ff7f0e; stroke: #ff7f0e; stroke-width: 2"/>
     <use xlink:href="#m4ae470f690" x="203.043065" y="256.925218" style="fill: #ff7f0e; stroke: #ff7f0e; stroke-width: 2"/>
     <use xlink:href="#m4ae470f690" x="235.617099" y="235.194839" style="fill: #ff7f0e; stroke: #ff7f0e; stroke-width: 2"/>
     <use xlink:href="#m4ae470f690" x="268.191134" y="208.302557" style="fill: #ff7f0e; stroke: #ff7f0e; stroke-width: 2"/>
     <use xlink:href="#m4ae470f690" x="289.907157" y="140.185399" style="fill: #ff7f0e; stroke: #ff7f0e; stroke-width: 2"/>
     <use xlink:href="#m4ae470f690" x="344.197215" y="118.949935" style="fill: #ff7f0e; stroke: #ff7f0e; stroke-width: 2"/>
     <use xlink:href="#m4ae470f690" x="398.487273" y="53.568" style="fill: #ff7f0e; stroke: #ff7f0e; stroke-width: 2"/>
     <use xlink:href="#m4ae470f690" x="73.832727" y="295.488" style="fill: #ff7f0e; stroke: #ff7f0e; stroke-width: 2"/>
     <use xlink:href="#m4ae470f690" x="74.918528" y="295.451993" style="fill: #ff7f0e; stroke: #ff7f0e; stroke-width: 2"/>
     <use xlink:href="#m4ae470f690" x="78.175932" y="295.415986" style="fill: #ff7f0e; stroke: #ff7f0e; stroke-width: 2"/>
     <use xlink:href="#m4ae470f690" x="83.604938" y="295.23588" style="fill: #ff7f0e; stroke: #ff7f0e; stroke-width: 2"/>
     <use xlink:href="#m4ae470f690" x="94.462949" y="294.418921" style="fill: #ff7f0e; stroke: #ff7f0e; stroke-width: 2"/>
     <use xlink:href="#m4ae470f690" x="127.036984" y="288.997408" style="fill: #ff7f0e; stroke: #ff7f0e; stroke-width: 2"/>
     <use xlink:href="#m4ae470f690" x="159.611019" y="278.698588" style="fill: #ff7f0e; stroke: #ff7f0e; stroke-width: 2"/>
     <use xlink:href="#m4ae470f690" x="181.327042" y="269.239052" style="fill: #ff7f0e; stroke: #ff7f0e; stroke-width: 2"/>
     <use xlink:href="#m4ae470f690" x="203.043065" y="257.199518" style="fill: #ff7f0e; stroke: #ff7f0e; stroke-width: 2"/>
     <use xlink:href="#m4ae470f690" x="235.617099" y="235.585766" style="fill: #ff7f0e; stroke: #ff7f0e; stroke-width: 2"/>
     <use xlink:href="#m4ae470f690" x="268.191134" y="209.413512" style="fill: #ff7f0e; stroke: #ff7f0e; stroke-width: 2"/>
     <use xlink:href="#m4ae470f690" x="289.907157" y="187.935722" style="fill: #ff7f0e; stroke: #ff7f0e; stroke-width: 2"/>
     <use xlink:href="#m4ae470f690" x="344.197215" y="128.649709" style="fill: #ff7f0e; stroke: #ff7f0e; stroke-width: 2"/>
     <use xlink:href="#m4ae470f690" x="398.487273" y="54.660015" style="fill: #ff7f0e; stroke: #ff7f0e; stroke-width: 2"/>
    </g>
   </g>
   <g id="matplotlib.axis_1">
    <g id="xtick_1">
     <g id="line2d_1">
      <path d="M 72.746926 307.584 
L 72.746926 41.472 
" clip-path="url(#p5fad1ad735)" style="fill: none; stroke: #b0b0b0; stroke-width: 0.8; stroke-linecap: square"/>
     </g>
     <g id="line2d_2">
      <defs>
       <path id="me5b21885c3" d="M 0 0 
L 0 3.5 
" style="stroke: #000000; stroke-width: 0.8"/>
      </defs>
      <g>
       <use xlink:href="#me5b21885c3" x="72.746926" y="307.584" style="stroke: #000000; stroke-width: 0.8"/>
      </g>
     </g>
     <g id="text_1">
      <!-- 0 -->
      <g transform="translate(69.565676 322.182437) scale(0.1 -0.1)">
       <defs>
        <path id="DejaVuSans-30" d="M 2034 4250 
Q 1547 4250 1301 3770 
Q 1056 3291 1056 2328 
Q 1056 1369 1301 889 
Q 1547 409 2034 409 
Q 2525 409 2770 889 
Q 3016 1369 3016 2328 
Q 3016 3291 2770 3770 
Q 2525 4250 2034 4250 
z
M 2034 4750 
Q 2819 4750 3233 4129 
Q 3647 3509 3647 2328 
Q 3647 1150 3233 529 
Q 2819 -91 2034 -91 
Q 1250 -91 836 529 
Q 422 1150 422 2328 
Q 422 3509 836 4129 
Q 1250 4750 2034 4750 
z
" transform="scale(0.015625)"/>
       </defs>
       <use xlink:href="#DejaVuSans-30"/>
      </g>
     </g>
    </g>
    <g id="xtick_2">
     <g id="line2d_3">
      <path d="M 127.036984 307.584 
L 127.036984 41.472 
" clip-path="url(#p5fad1ad735)" style="fill: none; stroke: #b0b0b0; stroke-width: 0.8; stroke-linecap: square"/>
     </g>
     <g id="line2d_4">
      <g>
       <use xlink:href="#me5b21885c3" x="127.036984" y="307.584" style="stroke: #000000; stroke-width: 0.8"/>
      </g>
     </g>
     <g id="text_2">
      <!-- 5000 -->
      <g transform="translate(114.311984 322.182437) scale(0.1 -0.1)">
       <defs>
        <path id="DejaVuSans-35" d="M 691 4666 
L 3169 4666 
L 3169 4134 
L 1269 4134 
L 1269 2991 
Q 1406 3038 1543 3061 
Q 1681 3084 1819 3084 
Q 2600 3084 3056 2656 
Q 3513 2228 3513 1497 
Q 3513 744 3044 326 
Q 2575 -91 1722 -91 
Q 1428 -91 1123 -41 
Q 819 9 494 109 
L 494 744 
Q 775 591 1075 516 
Q 1375 441 1709 441 
Q 2250 441 2565 725 
Q 2881 1009 2881 1497 
Q 2881 1984 2565 2268 
Q 2250 2553 1709 2553 
Q 1456 2553 1204 2497 
Q 953 2441 691 2322 
L 691 4666 
z
" transform="scale(0.015625)"/>
       </defs>
       <use xlink:href="#DejaVuSans-35"/>
       <use xlink:href="#DejaVuSans-30" x="63.623047"/>
       <use xlink:href="#DejaVuSans-30" x="127.246094"/>
       <use xlink:href="#DejaVuSans-30" x="190.869141"/>
      </g>
     </g>
    </g>
    <g id="xtick_3">
     <g id="line2d_5">
      <path d="M 181.327042 307.584 
L 181.327042 41.472 
" clip-path="url(#p5fad1ad735)" style="fill: none; stroke: #b0b0b0; stroke-width: 0.8; stroke-linecap: square"/>
     </g>
     <g id="line2d_6">
      <g>
       <use xlink:href="#me5b21885c3" x="181.327042" y="307.584" style="stroke: #000000; stroke-width: 0.8"/>
      </g>
     </g>
     <g id="text_3">
      <!-- 10000 -->
      <g transform="translate(165.420792 322.182437) scale(0.1 -0.1)">
       <defs>
        <path id="DejaVuSans-31" d="M 794 531 
L 1825 531 
L 1825 4091 
L 703 3866 
L 703 4441 
L 1819 4666 
L 2450 4666 
L 2450 531 
L 3481 531 
L 3481 0 
L 794 0 
L 794 531 
z
" transform="scale(0.015625)"/>
       </defs>
       <use xlink:href="#DejaVuSans-31"/>
       <use xlink:href="#DejaVuSans-30" x="63.623047"/>
       <use xlink:href="#DejaVuSans-30" x="127.246094"/>
       <use xlink:href="#DejaVuSans-30" x="190.869141"/>
       <use xlink:href="#DejaVuSans-30" x="254.492188"/>
      </g>
     </g>
    </g>
    <g id="xtick_4">
     <g id="line2d_7">
      <path d="M 235.617099 307.584 
L 235.617099 41.472 
" clip-path="url(#p5fad1ad735)" style="fill: none; stroke: #b0b0b0; stroke-width: 0.8; stroke-linecap: square"/>
     </g>
     <g id="line2d_8">
      <g>
       <use xlink:href="#me5b21885c3" x="235.617099" y="307.584" style="stroke: #000000; stroke-width: 0.8"/>
      </g>
     </g>
     <g id="text_4">
      <!-- 15000 -->
      <g transform="translate(219.710849 322.182437) scale(0.1 -0.1)">
       <use xlink:href="#DejaVuSans-31"/>
       <use xlink:href="#DejaVuSans-35" x="63.623047"/>
       <use xlink:href="#DejaVuSans-30" x="127.246094"/>
       <use xlink:href="#DejaVuSans-30" x="190.869141"/>
       <use xlink:href="#DejaVuSans-30" x="254.492188"/>
      </g>
     </g>
    </g>
    <g id="xtick_5">
     <g id="line2d_9">
      <path d="M 289.907157 307.584 
L 289.907157 41.472 
" clip-path="url(#p5fad1ad735)" style="fill: none; stroke: #b0b0b0; stroke-width: 0.8; stroke-linecap: square"/>
     </g>
     <g id="line2d_10">
      <g>
       <use xlink:href="#me5b21885c3" x="289.907157" y="307.584" style="stroke: #000000; stroke-width: 0.8"/>
      </g>
     </g>
     <g id="text_5">
      <!-- 20000 -->
      <g transform="translate(274.000907 322.182437) scale(0.1 -0.1)">
       <defs>
        <path id="DejaVuSans-32" d="M 1228 531 
L 3431 531 
L 3431 0 
L 469 0 
L 469 531 
Q 828 903 1448 1529 
Q 2069 2156 2228 2338 
Q 2531 2678 2651 2914 
Q 2772 3150 2772 3378 
Q 2772 3750 2511 3984 
Q 2250 4219 1831 4219 
Q 1534 4219 1204 4116 
Q 875 4013 500 3803 
L 500 4441 
Q 881 4594 1212 4672 
Q 1544 4750 1819 4750 
Q 2544 4750 2975 4387 
Q 3406 4025 3406 3419 
Q 3406 3131 3298 2873 
Q 3191 2616 2906 2266 
Q 2828 2175 2409 1742 
Q 1991 1309 1228 531 
z
" transform="scale(0.015625)"/>
       </defs>
       <use xlink:href="#DejaVuSans-32"/>
       <use xlink:href="#DejaVuSans-30" x="63.623047"/>
       <use xlink:href="#DejaVuSans-30" x="127.246094"/>
       <use xlink:href="#DejaVuSans-30" x="190.869141"/>
       <use xlink:href="#DejaVuSans-30" x="254.492188"/>
      </g>
     </g>
    </g>
    <g id="xtick_6">
     <g id="line2d_11">
      <path d="M 344.197215 307.584 
L 344.197215 41.472 
" clip-path="url(#p5fad1ad735)" style="fill: none; stroke: #b0b0b0; stroke-width: 0.8; stroke-linecap: square"/>
     </g>
     <g id="line2d_12">
      <g>
       <use xlink:href="#me5b21885c3" x="344.197215" y="307.584" style="stroke: #000000; stroke-width: 0.8"/>
      </g>
     </g>
     <g id="text_6">
      <!-- 25000 -->
      <g transform="translate(328.290965 322.182437) scale(0.1 -0.1)">
       <use xlink:href="#DejaVuSans-32"/>
       <use xlink:href="#DejaVuSans-35" x="63.623047"/>
       <use xlink:href="#DejaVuSans-30" x="127.246094"/>
       <use xlink:href="#DejaVuSans-30" x="190.869141"/>
       <use xlink:href="#DejaVuSans-30" x="254.492188"/>
      </g>
     </g>
    </g>
    <g id="xtick_7">
     <g id="line2d_13">
      <path d="M 398.487273 307.584 
L 398.487273 41.472 
" clip-path="url(#p5fad1ad735)" style="fill: none; stroke: #b0b0b0; stroke-width: 0.8; stroke-linecap: square"/>
     </g>
     <g id="line2d_14">
      <g>
       <use xlink:href="#me5b21885c3" x="398.487273" y="307.584" style="stroke: #000000; stroke-width: 0.8"/>
      </g>
     </g>
     <g id="text_7">
      <!-- 30000 -->
      <g transform="translate(382.581023 322.182437) scale(0.1 -0.1)">
       <defs>
        <path id="DejaVuSans-33" d="M 2597 2516 
Q 3050 2419 3304 2112 
Q 3559 1806 3559 1356 
Q 3559 666 3084 287 
Q 2609 -91 1734 -91 
Q 1441 -91 1130 -33 
Q 819 25 488 141 
L 488 750 
Q 750 597 1062 519 
Q 1375 441 1716 441 
Q 2309 441 2620 675 
Q 2931 909 2931 1356 
Q 2931 1769 2642 2001 
Q 2353 2234 1838 2234 
L 1294 2234 
L 1294 2753 
L 1863 2753 
Q 2328 2753 2575 2939 
Q 2822 3125 2822 3475 
Q 2822 3834 2567 4026 
Q 2313 4219 1838 4219 
Q 1578 4219 1281 4162 
Q 984 4106 628 3988 
L 628 4550 
Q 988 4650 1302 4700 
Q 1616 4750 1894 4750 
Q 2613 4750 3031 4423 
Q 3450 4097 3450 3541 
Q 3450 3153 3228 2886 
Q 3006 2619 2597 2516 
z
" transform="scale(0.015625)"/>
       </defs>
       <use xlink:href="#DejaVuSans-33"/>
       <use xlink:href="#DejaVuSans-30" x="63.623047"/>
       <use xlink:href="#DejaVuSans-30" x="127.246094"/>
       <use xlink:href="#DejaVuSans-30" x="190.869141"/>
       <use xlink:href="#DejaVuSans-30" x="254.492188"/>
      </g>
     </g>
    </g>
    <g id="text_8">
     <!-- the length of the list -->
     <g transform="translate(185.292812 335.860562) scale(0.1 -0.1)">
      <defs>
       <path id="DejaVuSans-74" d="M 1172 4494 
L 1172 3500 
L 2356 3500 
L 2356 3053 
L 1172 3053 
L 1172 1153 
Q 1172 725 1289 603 
Q 1406 481 1766 481 
L 2356 481 
L 2356 0 
L 1766 0 
Q 1100 0 847 248 
Q 594 497 594 1153 
L 594 3053 
L 172 3053 
L 172 3500 
L 594 3500 
L 594 4494 
L 1172 4494 
z
" transform="scale(0.015625)"/>
       <path id="DejaVuSans-68" d="M 3513 2113 
L 3513 0 
L 2938 0 
L 2938 2094 
Q 2938 2591 2744 2837 
Q 2550 3084 2163 3084 
Q 1697 3084 1428 2787 
Q 1159 2491 1159 1978 
L 1159 0 
L 581 0 
L 581 4863 
L 1159 4863 
L 1159 2956 
Q 1366 3272 1645 3428 
Q 1925 3584 2291 3584 
Q 2894 3584 3203 3211 
Q 3513 2838 3513 2113 
z
" transform="scale(0.015625)"/>
       <path id="DejaVuSans-65" d="M 3597 1894 
L 3597 1613 
L 953 1613 
Q 991 1019 1311 708 
Q 1631 397 2203 397 
Q 2534 397 2845 478 
Q 3156 559 3463 722 
L 3463 178 
Q 3153 47 2828 -22 
Q 2503 -91 2169 -91 
Q 1331 -91 842 396 
Q 353 884 353 1716 
Q 353 2575 817 3079 
Q 1281 3584 2069 3584 
Q 2775 3584 3186 3129 
Q 3597 2675 3597 1894 
z
M 3022 2063 
Q 3016 2534 2758 2815 
Q 2500 3097 2075 3097 
Q 1594 3097 1305 2825 
Q 1016 2553 972 2059 
L 3022 2063 
z
" transform="scale(0.015625)"/>
       <path id="DejaVuSans-20" transform="scale(0.015625)"/>
       <path id="DejaVuSans-6c" d="M 603 4863 
L 1178 4863 
L 1178 0 
L 603 0 
L 603 4863 
z
" transform="scale(0.015625)"/>
       <path id="DejaVuSans-6e" d="M 3513 2113 
L 3513 0 
L 2938 0 
L 2938 2094 
Q 2938 2591 2744 2837 
Q 2550 3084 2163 3084 
Q 1697 3084 1428 2787 
Q 1159 2491 1159 1978 
L 1159 0 
L 581 0 
L 581 3500 
L 1159 3500 
L 1159 2956 
Q 1366 3272 1645 3428 
Q 1925 3584 2291 3584 
Q 2894 3584 3203 3211 
Q 3513 2838 3513 2113 
z
" transform="scale(0.015625)"/>
       <path id="DejaVuSans-67" d="M 2906 1791 
Q 2906 2416 2648 2759 
Q 2391 3103 1925 3103 
Q 1463 3103 1205 2759 
Q 947 2416 947 1791 
Q 947 1169 1205 825 
Q 1463 481 1925 481 
Q 2391 481 2648 825 
Q 2906 1169 2906 1791 
z
M 3481 434 
Q 3481 -459 3084 -895 
Q 2688 -1331 1869 -1331 
Q 1566 -1331 1297 -1286 
Q 1028 -1241 775 -1147 
L 775 -588 
Q 1028 -725 1275 -790 
Q 1522 -856 1778 -856 
Q 2344 -856 2625 -561 
Q 2906 -266 2906 331 
L 2906 616 
Q 2728 306 2450 153 
Q 2172 0 1784 0 
Q 1141 0 747 490 
Q 353 981 353 1791 
Q 353 2603 747 3093 
Q 1141 3584 1784 3584 
Q 2172 3584 2450 3431 
Q 2728 3278 2906 2969 
L 2906 3500 
L 3481 3500 
L 3481 434 
z
" transform="scale(0.015625)"/>
       <path id="DejaVuSans-6f" d="M 1959 3097 
Q 1497 3097 1228 2736 
Q 959 2375 959 1747 
Q 959 1119 1226 758 
Q 1494 397 1959 397 
Q 2419 397 2687 759 
Q 2956 1122 2956 1747 
Q 2956 2369 2687 2733 
Q 2419 3097 1959 3097 
z
M 1959 3584 
Q 2709 3584 3137 3096 
Q 3566 2609 3566 1747 
Q 3566 888 3137 398 
Q 2709 -91 1959 -91 
Q 1206 -91 779 398 
Q 353 888 353 1747 
Q 353 2609 779 3096 
Q 1206 3584 1959 3584 
z
" transform="scale(0.015625)"/>
       <path id="DejaVuSans-66" d="M 2375 4863 
L 2375 4384 
L 1825 4384 
Q 1516 4384 1395 4259 
Q 1275 4134 1275 3809 
L 1275 3500 
L 2222 3500 
L 2222 3053 
L 1275 3053 
L 1275 0 
L 697 0 
L 697 3053 
L 147 3053 
L 147 3500 
L 697 3500 
L 697 3744 
Q 697 4328 969 4595 
Q 1241 4863 1831 4863 
L 2375 4863 
z
" transform="scale(0.015625)"/>
       <path id="DejaVuSans-69" d="M 603 3500 
L 1178 3500 
L 1178 0 
L 603 0 
L 603 3500 
z
M 603 4863 
L 1178 4863 
L 1178 4134 
L 603 4134 
L 603 4863 
z
" transform="scale(0.015625)"/>
       <path id="DejaVuSans-73" d="M 2834 3397 
L 2834 2853 
Q 2591 2978 2328 3040 
Q 2066 3103 1784 3103 
Q 1356 3103 1142 2972 
Q 928 2841 928 2578 
Q 928 2378 1081 2264 
Q 1234 2150 1697 2047 
L 1894 2003 
Q 2506 1872 2764 1633 
Q 3022 1394 3022 966 
Q 3022 478 2636 193 
Q 2250 -91 1575 -91 
Q 1294 -91 989 -36 
Q 684 19 347 128 
L 347 722 
Q 666 556 975 473 
Q 1284 391 1588 391 
Q 1994 391 2212 530 
Q 2431 669 2431 922 
Q 2431 1156 2273 1281 
Q 2116 1406 1581 1522 
L 1381 1569 
Q 847 1681 609 1914 
Q 372 2147 372 2553 
Q 372 3047 722 3315 
Q 1072 3584 1716 3584 
Q 2034 3584 2315 3537 
Q 2597 3491 2834 3397 
z
" transform="scale(0.015625)"/>
      </defs>
      <use xlink:href="#DejaVuSans-74"/>
      <use xlink:href="#DejaVuSans-68" x="39.208984"/>
      <use xlink:href="#DejaVuSans-65" x="102.587891"/>
      <use xlink:href="#DejaVuSans-20" x="164.111328"/>
      <use xlink:href="#DejaVuSans-6c" x="195.898438"/>
      <use xlink:href="#DejaVuSans-65" x="223.681641"/>
      <use xlink:href="#DejaVuSans-6e" x="285.205078"/>
      <use xlink:href="#DejaVuSans-67" x="348.583984"/>
      <use xlink:href="#DejaVuSans-74" x="412.060547"/>
      <use xlink:href="#DejaVuSans-68" x="451.269531"/>
      <use xlink:href="#DejaVuSans-20" x="514.648438"/>
      <use xlink:href="#DejaVuSans-6f" x="546.435547"/>
      <use xlink:href="#DejaVuSans-66" x="607.617188"/>
      <use xlink:href="#DejaVuSans-20" x="642.822266"/>
      <use xlink:href="#DejaVuSans-74" x="674.609375"/>
      <use xlink:href="#DejaVuSans-68" x="713.818359"/>
      <use xlink:href="#DejaVuSans-65" x="777.197266"/>
      <use xlink:href="#DejaVuSans-20" x="838.720703"/>
      <use xlink:href="#DejaVuSans-6c" x="870.507812"/>
      <use xlink:href="#DejaVuSans-69" x="898.291016"/>
      <use xlink:href="#DejaVuSans-73" x="926.074219"/>
      <use xlink:href="#DejaVuSans-74" x="978.173828"/>
     </g>
    </g>
   </g>
   <g id="matplotlib.axis_2">
    <g id="ytick_1">
     <g id="line2d_15">
      <path d="M 57.6 295.488 
L 414.72 295.488 
" clip-path="url(#p5fad1ad735)" style="fill: none; stroke: #b0b0b0; stroke-width: 0.8; stroke-linecap: square"/>
     </g>
     <g id="line2d_16">
      <defs>
       <path id="md299b1e5ef" d="M 0 0 
L -3.5 0 
" style="stroke: #000000; stroke-width: 0.8"/>
      </defs>
      <g>
       <use xlink:href="#md299b1e5ef" x="57.6" y="295.488" style="stroke: #000000; stroke-width: 0.8"/>
      </g>
     </g>
     <g id="text_9">
      <!-- 0 -->
      <g transform="translate(44.2375 299.287219) scale(0.1 -0.1)">
       <use xlink:href="#DejaVuSans-30"/>
      </g>
     </g>
    </g>
    <g id="ytick_2">
     <g id="line2d_17">
      <path d="M 57.6 259.481163 
L 414.72 259.481163 
" clip-path="url(#p5fad1ad735)" style="fill: none; stroke: #b0b0b0; stroke-width: 0.8; stroke-linecap: square"/>
     </g>
     <g id="line2d_18">
      <g>
       <use xlink:href="#md299b1e5ef" x="57.6" y="259.481163" style="stroke: #000000; stroke-width: 0.8"/>
      </g>
     </g>
     <g id="text_10">
      <!-- 1 -->
      <g transform="translate(44.2375 263.280382) scale(0.1 -0.1)">
       <use xlink:href="#DejaVuSans-31"/>
      </g>
     </g>
    </g>
    <g id="ytick_3">
     <g id="line2d_19">
      <path d="M 57.6 223.474326 
L 414.72 223.474326 
" clip-path="url(#p5fad1ad735)" style="fill: none; stroke: #b0b0b0; stroke-width: 0.8; stroke-linecap: square"/>
     </g>
     <g id="line2d_20">
      <g>
       <use xlink:href="#md299b1e5ef" x="57.6" y="223.474326" style="stroke: #000000; stroke-width: 0.8"/>
      </g>
     </g>
     <g id="text_11">
      <!-- 2 -->
      <g transform="translate(44.2375 227.273545) scale(0.1 -0.1)">
       <use xlink:href="#DejaVuSans-32"/>
      </g>
     </g>
    </g>
    <g id="ytick_4">
     <g id="line2d_21">
      <path d="M 57.6 187.467489 
L 414.72 187.467489 
" clip-path="url(#p5fad1ad735)" style="fill: none; stroke: #b0b0b0; stroke-width: 0.8; stroke-linecap: square"/>
     </g>
     <g id="line2d_22">
      <g>
       <use xlink:href="#md299b1e5ef" x="57.6" y="187.467489" style="stroke: #000000; stroke-width: 0.8"/>
      </g>
     </g>
     <g id="text_12">
      <!-- 3 -->
      <g transform="translate(44.2375 191.266708) scale(0.1 -0.1)">
       <use xlink:href="#DejaVuSans-33"/>
      </g>
     </g>
    </g>
    <g id="ytick_5">
     <g id="line2d_23">
      <path d="M 57.6 151.460652 
L 414.72 151.460652 
" clip-path="url(#p5fad1ad735)" style="fill: none; stroke: #b0b0b0; stroke-width: 0.8; stroke-linecap: square"/>
     </g>
     <g id="line2d_24">
      <g>
       <use xlink:href="#md299b1e5ef" x="57.6" y="151.460652" style="stroke: #000000; stroke-width: 0.8"/>
      </g>
     </g>
     <g id="text_13">
      <!-- 4 -->
      <g transform="translate(44.2375 155.259871) scale(0.1 -0.1)">
       <defs>
        <path id="DejaVuSans-34" d="M 2419 4116 
L 825 1625 
L 2419 1625 
L 2419 4116 
z
M 2253 4666 
L 3047 4666 
L 3047 1625 
L 3713 1625 
L 3713 1100 
L 3047 1100 
L 3047 0 
L 2419 0 
L 2419 1100 
L 313 1100 
L 313 1709 
L 2253 4666 
z
" transform="scale(0.015625)"/>
       </defs>
       <use xlink:href="#DejaVuSans-34"/>
      </g>
     </g>
    </g>
    <g id="ytick_6">
     <g id="line2d_25">
      <path d="M 57.6 115.453815 
L 414.72 115.453815 
" clip-path="url(#p5fad1ad735)" style="fill: none; stroke: #b0b0b0; stroke-width: 0.8; stroke-linecap: square"/>
     </g>
     <g id="line2d_26">
      <g>
       <use xlink:href="#md299b1e5ef" x="57.6" y="115.453815" style="stroke: #000000; stroke-width: 0.8"/>
      </g>
     </g>
     <g id="text_14">
      <!-- 5 -->
      <g transform="translate(44.2375 119.253034) scale(0.1 -0.1)">
       <use xlink:href="#DejaVuSans-35"/>
      </g>
     </g>
    </g>
    <g id="ytick_7">
     <g id="line2d_27">
      <path d="M 57.6 79.446978 
L 414.72 79.446978 
" clip-path="url(#p5fad1ad735)" style="fill: none; stroke: #b0b0b0; stroke-width: 0.8; stroke-linecap: square"/>
     </g>
     <g id="line2d_28">
      <g>
       <use xlink:href="#md299b1e5ef" x="57.6" y="79.446978" style="stroke: #000000; stroke-width: 0.8"/>
      </g>
     </g>
     <g id="text_15">
      <!-- 6 -->
      <g transform="translate(44.2375 83.246197) scale(0.1 -0.1)">
       <defs>
        <path id="DejaVuSans-36" d="M 2113 2584 
Q 1688 2584 1439 2293 
Q 1191 2003 1191 1497 
Q 1191 994 1439 701 
Q 1688 409 2113 409 
Q 2538 409 2786 701 
Q 3034 994 3034 1497 
Q 3034 2003 2786 2293 
Q 2538 2584 2113 2584 
z
M 3366 4563 
L 3366 3988 
Q 3128 4100 2886 4159 
Q 2644 4219 2406 4219 
Q 1781 4219 1451 3797 
Q 1122 3375 1075 2522 
Q 1259 2794 1537 2939 
Q 1816 3084 2150 3084 
Q 2853 3084 3261 2657 
Q 3669 2231 3669 1497 
Q 3669 778 3244 343 
Q 2819 -91 2113 -91 
Q 1303 -91 875 529 
Q 447 1150 447 2328 
Q 447 3434 972 4092 
Q 1497 4750 2381 4750 
Q 2619 4750 2861 4703 
Q 3103 4656 3366 4563 
z
" transform="scale(0.015625)"/>
       </defs>
       <use xlink:href="#DejaVuSans-36"/>
      </g>
     </g>
    </g>
    <g id="ytick_8">
     <g id="line2d_29">
      <path d="M 57.6 43.440141 
L 414.72 43.440141 
" clip-path="url(#p5fad1ad735)" style="fill: none; stroke: #b0b0b0; stroke-width: 0.8; stroke-linecap: square"/>
     </g>
     <g id="line2d_30">
      <g>
       <use xlink:href="#md299b1e5ef" x="57.6" y="43.440141" style="stroke: #000000; stroke-width: 0.8"/>
      </g>
     </g>
     <g id="text_16">
      <!-- 7 -->
      <g transform="translate(44.2375 47.23936) scale(0.1 -0.1)">
       <defs>
        <path id="DejaVuSans-37" d="M 525 4666 
L 3525 4666 
L 3525 4397 
L 1831 0 
L 1172 0 
L 2766 4134 
L 525 4134 
L 525 4666 
z
" transform="scale(0.015625)"/>
       </defs>
       <use xlink:href="#DejaVuSans-37"/>
      </g>
     </g>
    </g>
    <g id="text_17">
     <!-- time cost in second -->
     <g transform="translate(38.157812 223.355344) rotate(-90) scale(0.1 -0.1)">
      <defs>
       <path id="DejaVuSans-6d" d="M 3328 2828 
Q 3544 3216 3844 3400 
Q 4144 3584 4550 3584 
Q 5097 3584 5394 3201 
Q 5691 2819 5691 2113 
L 5691 0 
L 5113 0 
L 5113 2094 
Q 5113 2597 4934 2840 
Q 4756 3084 4391 3084 
Q 3944 3084 3684 2787 
Q 3425 2491 3425 1978 
L 3425 0 
L 2847 0 
L 2847 2094 
Q 2847 2600 2669 2842 
Q 2491 3084 2119 3084 
Q 1678 3084 1418 2786 
Q 1159 2488 1159 1978 
L 1159 0 
L 581 0 
L 581 3500 
L 1159 3500 
L 1159 2956 
Q 1356 3278 1631 3431 
Q 1906 3584 2284 3584 
Q 2666 3584 2933 3390 
Q 3200 3197 3328 2828 
z
" transform="scale(0.015625)"/>
       <path id="DejaVuSans-63" d="M 3122 3366 
L 3122 2828 
Q 2878 2963 2633 3030 
Q 2388 3097 2138 3097 
Q 1578 3097 1268 2742 
Q 959 2388 959 1747 
Q 959 1106 1268 751 
Q 1578 397 2138 397 
Q 2388 397 2633 464 
Q 2878 531 3122 666 
L 3122 134 
Q 2881 22 2623 -34 
Q 2366 -91 2075 -91 
Q 1284 -91 818 406 
Q 353 903 353 1747 
Q 353 2603 823 3093 
Q 1294 3584 2113 3584 
Q 2378 3584 2631 3529 
Q 2884 3475 3122 3366 
z
" transform="scale(0.015625)"/>
       <path id="DejaVuSans-64" d="M 2906 2969 
L 2906 4863 
L 3481 4863 
L 3481 0 
L 2906 0 
L 2906 525 
Q 2725 213 2448 61 
Q 2172 -91 1784 -91 
Q 1150 -91 751 415 
Q 353 922 353 1747 
Q 353 2572 751 3078 
Q 1150 3584 1784 3584 
Q 2172 3584 2448 3432 
Q 2725 3281 2906 2969 
z
M 947 1747 
Q 947 1113 1208 752 
Q 1469 391 1925 391 
Q 2381 391 2643 752 
Q 2906 1113 2906 1747 
Q 2906 2381 2643 2742 
Q 2381 3103 1925 3103 
Q 1469 3103 1208 2742 
Q 947 2381 947 1747 
z
" transform="scale(0.015625)"/>
      </defs>
      <use xlink:href="#DejaVuSans-74"/>
      <use xlink:href="#DejaVuSans-69" x="39.208984"/>
      <use xlink:href="#DejaVuSans-6d" x="66.992188"/>
      <use xlink:href="#DejaVuSans-65" x="164.404297"/>
      <use xlink:href="#DejaVuSans-20" x="225.927734"/>
      <use xlink:href="#DejaVuSans-63" x="257.714844"/>
      <use xlink:href="#DejaVuSans-6f" x="312.695312"/>
      <use xlink:href="#DejaVuSans-73" x="373.876953"/>
      <use xlink:href="#DejaVuSans-74" x="425.976562"/>
      <use xlink:href="#DejaVuSans-20" x="465.185547"/>
      <use xlink:href="#DejaVuSans-69" x="496.972656"/>
      <use xlink:href="#DejaVuSans-6e" x="524.755859"/>
      <use xlink:href="#DejaVuSans-20" x="588.134766"/>
      <use xlink:href="#DejaVuSans-73" x="619.921875"/>
      <use xlink:href="#DejaVuSans-65" x="672.021484"/>
      <use xlink:href="#DejaVuSans-63" x="733.544922"/>
      <use xlink:href="#DejaVuSans-6f" x="788.525391"/>
      <use xlink:href="#DejaVuSans-6e" x="849.707031"/>
      <use xlink:href="#DejaVuSans-64" x="913.085938"/>
     </g>
    </g>
   </g>
   <g id="patch_3">
    <path d="M 57.6 307.584 
L 57.6 41.472 
" style="fill: none; stroke: #000000; stroke-width: 0.8; stroke-linejoin: miter; stroke-linecap: square"/>
   </g>
   <g id="patch_4">
    <path d="M 414.72 307.584 
L 414.72 41.472 
" style="fill: none; stroke: #000000; stroke-width: 0.8; stroke-linejoin: miter; stroke-linecap: square"/>
   </g>
   <g id="patch_5">
    <path d="M 57.6 307.584 
L 414.72 307.584 
" style="fill: none; stroke: #000000; stroke-width: 0.8; stroke-linejoin: miter; stroke-linecap: square"/>
   </g>
   <g id="patch_6">
    <path d="M 57.6 41.472 
L 414.72 41.472 
" style="fill: none; stroke: #000000; stroke-width: 0.8; stroke-linejoin: miter; stroke-linecap: square"/>
   </g>
   <g id="text_18">
    <!-- the complex of the insertion sort and merge sort -->
    <g transform="translate(89.835 35.472) scale(0.12 -0.12)">
     <defs>
      <path id="DejaVuSans-70" d="M 1159 525 
L 1159 -1331 
L 581 -1331 
L 581 3500 
L 1159 3500 
L 1159 2969 
Q 1341 3281 1617 3432 
Q 1894 3584 2278 3584 
Q 2916 3584 3314 3078 
Q 3713 2572 3713 1747 
Q 3713 922 3314 415 
Q 2916 -91 2278 -91 
Q 1894 -91 1617 61 
Q 1341 213 1159 525 
z
M 3116 1747 
Q 3116 2381 2855 2742 
Q 2594 3103 2138 3103 
Q 1681 3103 1420 2742 
Q 1159 2381 1159 1747 
Q 1159 1113 1420 752 
Q 1681 391 2138 391 
Q 2594 391 2855 752 
Q 3116 1113 3116 1747 
z
" transform="scale(0.015625)"/>
      <path id="DejaVuSans-78" d="M 3513 3500 
L 2247 1797 
L 3578 0 
L 2900 0 
L 1881 1375 
L 863 0 
L 184 0 
L 1544 1831 
L 300 3500 
L 978 3500 
L 1906 2253 
L 2834 3500 
L 3513 3500 
z
" transform="scale(0.015625)"/>
      <path id="DejaVuSans-72" d="M 2631 2963 
Q 2534 3019 2420 3045 
Q 2306 3072 2169 3072 
Q 1681 3072 1420 2755 
Q 1159 2438 1159 1844 
L 1159 0 
L 581 0 
L 581 3500 
L 1159 3500 
L 1159 2956 
Q 1341 3275 1631 3429 
Q 1922 3584 2338 3584 
Q 2397 3584 2469 3576 
Q 2541 3569 2628 3553 
L 2631 2963 
z
" transform="scale(0.015625)"/>
      <path id="DejaVuSans-61" d="M 2194 1759 
Q 1497 1759 1228 1600 
Q 959 1441 959 1056 
Q 959 750 1161 570 
Q 1363 391 1709 391 
Q 2188 391 2477 730 
Q 2766 1069 2766 1631 
L 2766 1759 
L 2194 1759 
z
M 3341 1997 
L 3341 0 
L 2766 0 
L 2766 531 
Q 2569 213 2275 61 
Q 1981 -91 1556 -91 
Q 1019 -91 701 211 
Q 384 513 384 1019 
Q 384 1609 779 1909 
Q 1175 2209 1959 2209 
L 2766 2209 
L 2766 2266 
Q 2766 2663 2505 2880 
Q 2244 3097 1772 3097 
Q 1472 3097 1187 3025 
Q 903 2953 641 2809 
L 641 3341 
Q 956 3463 1253 3523 
Q 1550 3584 1831 3584 
Q 2591 3584 2966 3190 
Q 3341 2797 3341 1997 
z
" transform="scale(0.015625)"/>
     </defs>
     <use xlink:href="#DejaVuSans-74"/>
     <use xlink:href="#DejaVuSans-68" x="39.208984"/>
     <use xlink:href="#DejaVuSans-65" x="102.587891"/>
     <use xlink:href="#DejaVuSans-20" x="164.111328"/>
     <use xlink:href="#DejaVuSans-63" x="195.898438"/>
     <use xlink:href="#DejaVuSans-6f" x="250.878906"/>
     <use xlink:href="#DejaVuSans-6d" x="312.060547"/>
     <use xlink:href="#DejaVuSans-70" x="409.472656"/>
     <use xlink:href="#DejaVuSans-6c" x="472.949219"/>
     <use xlink:href="#DejaVuSans-65" x="500.732422"/>
     <use xlink:href="#DejaVuSans-78" x="560.505859"/>
     <use xlink:href="#DejaVuSans-20" x="619.685547"/>
     <use xlink:href="#DejaVuSans-6f" x="651.472656"/>
     <use xlink:href="#DejaVuSans-66" x="712.654297"/>
     <use xlink:href="#DejaVuSans-20" x="747.859375"/>
     <use xlink:href="#DejaVuSans-74" x="779.646484"/>
     <use xlink:href="#DejaVuSans-68" x="818.855469"/>
     <use xlink:href="#DejaVuSans-65" x="882.234375"/>
     <use xlink:href="#DejaVuSans-20" x="943.757812"/>
     <use xlink:href="#DejaVuSans-69" x="975.544922"/>
     <use xlink:href="#DejaVuSans-6e" x="1003.328125"/>
     <use xlink:href="#DejaVuSans-73" x="1066.707031"/>
     <use xlink:href="#DejaVuSans-65" x="1118.806641"/>
     <use xlink:href="#DejaVuSans-72" x="1180.330078"/>
     <use xlink:href="#DejaVuSans-74" x="1221.443359"/>
     <use xlink:href="#DejaVuSans-69" x="1260.652344"/>
     <use xlink:href="#DejaVuSans-6f" x="1288.435547"/>
     <use xlink:href="#DejaVuSans-6e" x="1349.617188"/>
     <use xlink:href="#DejaVuSans-20" x="1412.996094"/>
     <use xlink:href="#DejaVuSans-73" x="1444.783203"/>
     <use xlink:href="#DejaVuSans-6f" x="1496.882812"/>
     <use xlink:href="#DejaVuSans-72" x="1558.064453"/>
     <use xlink:href="#DejaVuSans-74" x="1599.177734"/>
     <use xlink:href="#DejaVuSans-20" x="1638.386719"/>
     <use xlink:href="#DejaVuSans-61" x="1670.173828"/>
     <use xlink:href="#DejaVuSans-6e" x="1731.453125"/>
     <use xlink:href="#DejaVuSans-64" x="1794.832031"/>
     <use xlink:href="#DejaVuSans-20" x="1858.308594"/>
     <use xlink:href="#DejaVuSans-6d" x="1890.095703"/>
     <use xlink:href="#DejaVuSans-65" x="1987.507812"/>
     <use xlink:href="#DejaVuSans-72" x="2049.03125"/>
     <use xlink:href="#DejaVuSans-67" x="2088.394531"/>
     <use xlink:href="#DejaVuSans-65" x="2151.871094"/>
     <use xlink:href="#DejaVuSans-20" x="2213.394531"/>
     <use xlink:href="#DejaVuSans-73" x="2245.181641"/>
     <use xlink:href="#DejaVuSans-6f" x="2297.28125"/>
     <use xlink:href="#DejaVuSans-72" x="2358.462891"/>
     <use xlink:href="#DejaVuSans-74" x="2399.576172"/>
    </g>
   </g>
   <g id="legend_1">
    <g id="patch_7">
     <path d="M 64.6 78.82825 
L 304.398438 78.82825 
Q 306.398438 78.82825 306.398438 76.82825 
L 306.398438 48.472 
Q 306.398438 46.472 304.398438 46.472 
L 64.6 46.472 
Q 62.6 46.472 62.6 48.472 
L 62.6 76.82825 
Q 62.6 78.82825 64.6 78.82825 
z
" style="fill: #ffffff; opacity: 0.8; stroke: #cccccc; stroke-linejoin: miter"/>
    </g>
    <g id="PathCollection_3">
     <g>
      <use xlink:href="#m9491cc3887" x="76.6" y="55.445437" style="fill: #1f77b4; stroke: #1f77b4; stroke-width: 2"/>
     </g>
    </g>
    <g id="text_19">
     <!-- mergesort each length with 3 random list -->
     <g transform="translate(94.6 58.070437) scale(0.1 -0.1)">
      <defs>
       <path id="DejaVuSans-77" d="M 269 3500 
L 844 3500 
L 1563 769 
L 2278 3500 
L 2956 3500 
L 3675 769 
L 4391 3500 
L 4966 3500 
L 4050 0 
L 3372 0 
L 2619 2869 
L 1863 0 
L 1184 0 
L 269 3500 
z
" transform="scale(0.015625)"/>
      </defs>
      <use xlink:href="#DejaVuSans-6d"/>
      <use xlink:href="#DejaVuSans-65" x="97.412109"/>
      <use xlink:href="#DejaVuSans-72" x="158.935547"/>
      <use xlink:href="#DejaVuSans-67" x="198.298828"/>
      <use xlink:href="#DejaVuSans-65" x="261.775391"/>
      <use xlink:href="#DejaVuSans-73" x="323.298828"/>
      <use xlink:href="#DejaVuSans-6f" x="375.398438"/>
      <use xlink:href="#DejaVuSans-72" x="436.580078"/>
      <use xlink:href="#DejaVuSans-74" x="477.693359"/>
      <use xlink:href="#DejaVuSans-20" x="516.902344"/>
      <use xlink:href="#DejaVuSans-65" x="548.689453"/>
      <use xlink:href="#DejaVuSans-61" x="610.212891"/>
      <use xlink:href="#DejaVuSans-63" x="671.492188"/>
      <use xlink:href="#DejaVuSans-68" x="726.472656"/>
      <use xlink:href="#DejaVuSans-20" x="789.851562"/>
      <use xlink:href="#DejaVuSans-6c" x="821.638672"/>
      <use xlink:href="#DejaVuSans-65" x="849.421875"/>
      <use xlink:href="#DejaVuSans-6e" x="910.945312"/>
      <use xlink:href="#DejaVuSans-67" x="974.324219"/>
      <use xlink:href="#DejaVuSans-74" x="1037.800781"/>
      <use xlink:href="#DejaVuSans-68" x="1077.009766"/>
      <use xlink:href="#DejaVuSans-20" x="1140.388672"/>
      <use xlink:href="#DejaVuSans-77" x="1172.175781"/>
      <use xlink:href="#DejaVuSans-69" x="1253.962891"/>
      <use xlink:href="#DejaVuSans-74" x="1281.746094"/>
      <use xlink:href="#DejaVuSans-68" x="1320.955078"/>
      <use xlink:href="#DejaVuSans-20" x="1384.333984"/>
      <use xlink:href="#DejaVuSans-33" x="1416.121094"/>
      <use xlink:href="#DejaVuSans-20" x="1479.744141"/>
      <use xlink:href="#DejaVuSans-72" x="1511.53125"/>
      <use xlink:href="#DejaVuSans-61" x="1552.644531"/>
      <use xlink:href="#DejaVuSans-6e" x="1613.923828"/>
      <use xlink:href="#DejaVuSans-64" x="1677.302734"/>
      <use xlink:href="#DejaVuSans-6f" x="1740.779297"/>
      <use xlink:href="#DejaVuSans-6d" x="1801.960938"/>
      <use xlink:href="#DejaVuSans-20" x="1899.373047"/>
      <use xlink:href="#DejaVuSans-6c" x="1931.160156"/>
      <use xlink:href="#DejaVuSans-69" x="1958.943359"/>
      <use xlink:href="#DejaVuSans-73" x="1986.726562"/>
      <use xlink:href="#DejaVuSans-74" x="2038.826172"/>
     </g>
    </g>
    <g id="PathCollection_4">
     <g>
      <use xlink:href="#m4ae470f690" x="76.6" y="70.123562" style="fill: #ff7f0e; stroke: #ff7f0e; stroke-width: 2"/>
     </g>
    </g>
    <g id="text_20">
     <!-- insertsort each length with 3 random list -->
     <g transform="translate(94.6 72.748562) scale(0.1 -0.1)">
      <use xlink:href="#DejaVuSans-69"/>
      <use xlink:href="#DejaVuSans-6e" x="27.783203"/>
      <use xlink:href="#DejaVuSans-73" x="91.162109"/>
      <use xlink:href="#DejaVuSans-65" x="143.261719"/>
      <use xlink:href="#DejaVuSans-72" x="204.785156"/>
      <use xlink:href="#DejaVuSans-74" x="245.898438"/>
      <use xlink:href="#DejaVuSans-73" x="285.107422"/>
      <use xlink:href="#DejaVuSans-6f" x="337.207031"/>
      <use xlink:href="#DejaVuSans-72" x="398.388672"/>
      <use xlink:href="#DejaVuSans-74" x="439.501953"/>
      <use xlink:href="#DejaVuSans-20" x="478.710938"/>
      <use xlink:href="#DejaVuSans-65" x="510.498047"/>
      <use xlink:href="#DejaVuSans-61" x="572.021484"/>
      <use xlink:href="#DejaVuSans-63" x="633.300781"/>
      <use xlink:href="#DejaVuSans-68" x="688.28125"/>
      <use xlink:href="#DejaVuSans-20" x="751.660156"/>
      <use xlink:href="#DejaVuSans-6c" x="783.447266"/>
      <use xlink:href="#DejaVuSans-65" x="811.230469"/>
      <use xlink:href="#DejaVuSans-6e" x="872.753906"/>
      <use xlink:href="#DejaVuSans-67" x="936.132812"/>
      <use xlink:href="#DejaVuSans-74" x="999.609375"/>
      <use xlink:href="#DejaVuSans-68" x="1038.818359"/>
      <use xlink:href="#DejaVuSans-20" x="1102.197266"/>
      <use xlink:href="#DejaVuSans-77" x="1133.984375"/>
      <use xlink:href="#DejaVuSans-69" x="1215.771484"/>
      <use xlink:href="#DejaVuSans-74" x="1243.554688"/>
      <use xlink:href="#DejaVuSans-68" x="1282.763672"/>
      <use xlink:href="#DejaVuSans-20" x="1346.142578"/>
      <use xlink:href="#DejaVuSans-33" x="1377.929688"/>
      <use xlink:href="#DejaVuSans-20" x="1441.552734"/>
      <use xlink:href="#DejaVuSans-72" x="1473.339844"/>
      <use xlink:href="#DejaVuSans-61" x="1514.453125"/>
      <use xlink:href="#DejaVuSans-6e" x="1575.732422"/>
      <use xlink:href="#DejaVuSans-64" x="1639.111328"/>
      <use xlink:href="#DejaVuSans-6f" x="1702.587891"/>
      <use xlink:href="#DejaVuSans-6d" x="1763.769531"/>
      <use xlink:href="#DejaVuSans-20" x="1861.181641"/>
      <use xlink:href="#DejaVuSans-6c" x="1892.96875"/>
      <use xlink:href="#DejaVuSans-69" x="1920.751953"/>
      <use xlink:href="#DejaVuSans-73" x="1948.535156"/>
      <use xlink:href="#DejaVuSans-74" x="2000.634766"/>
     </g>
    </g>
   </g>
  </g>
 </g>
 <defs>
  <clipPath id="p5fad1ad735">
   <rect x="57.6" y="41.472" width="357.12" height="266.112"/>
  </clipPath>
 </defs>
</svg>
